{
    "asset" : {
        "generator" : "Khronos glTF Blender I/O v1.5.17",
        "version" : "2.0"
    },
    "scene" : 0,
    "scenes" : [
        {
            "name" : "Scene",
            "nodes" : [
                0
            ]
        }
    ],
    "nodes" : [
        {
            "mesh" : 0,
            "name" : "Circle",
            "scale" : [
                1.242141842842102,
                1.242141842842102,
                1.242141842842102
            ],
            "translation" : [
                -0.0073282718658447266,
                -0.020017147064208984,
                0.0056069111451506615
            ]
        }
    ],
    "materials" : [
        {
            "doubleSided" : true,
            "name" : "dish",
            "pbrMetallicRoughness" : {
                "baseColorFactor" : [
                    0.5689470171928406,
                    0.5689470171928406,
                    0.5689470171928406,
                    1
                ],
                "metallicFactor" : 0,
                "roughnessFactor" : 0.1015625
            }
        }
    ],
    "meshes" : [
        {
            "name" : "Circle.001",
            "primitives" : [
                {
                    "attributes" : {
                        "POSITION" : 0,
                        "NORMAL" : 1,
                        "TEXCOORD_0" : 2
                    },
                    "indices" : 3,
                    "material" : 0
                }
            ]
        }
    ],
    "accessors" : [
        {
            "bufferView" : 0,
            "componentType" : 5126,
            "count" : 1068,
            "max" : [
                1.595792531967163,
                0.12384282052516937,
                1.5957926511764526
            ],
            "min" : [
                -1.5957924127578735,
                -0.09339898824691772,
                -1.595792293548584
            ],
            "type" : "VEC3"
        },
        {
            "bufferView" : 1,
            "componentType" : 5126,
            "count" : 1068,
            "type" : "VEC3"
        },
        {
            "bufferView" : 2,
            "componentType" : 5126,
            "count" : 1068,
            "type" : "VEC2"
        },
        {
            "bufferView" : 3,
            "componentType" : 5123,
            "count" : 4224,
            "type" : "SCALAR"
        }
    ],
    "bufferViews" : [
        {
            "buffer" : 0,
            "byteLength" : 12816,
            "byteOffset" : 0
        },
        {
            "buffer" : 0,
            "byteLength" : 12816,
            "byteOffset" : 12816
        },
        {
            "buffer" : 0,
            "byteLength" : 8544,
            "byteOffset" : 25632
        },
        {
            "buffer" : 0,
            "byteLength" : 8448,
            "byteOffset" : 34176
        }
    ],
    "buffers" : [
        {
            "byteLength" : 42624,
            "uri" : "data:application/octet-stream;base64,"
        }
    ]
}
